#!OML:ASF X:\für Bonn\!DataBase\2005_08_12_Daniel\c3d\Daniel.ASF
:FULLY-SPECIFIED
:DEGREES
292
root 21.9631 1.29567 -0.134848 -1265.81 264.617 64.1047
lowerback 34.9639 -1.32833 -0.215064
upperback 11.9679 -3.32456 -2.43762
thorax -4.61789 -2.31724 -1.2357
lowerneck 3.83616 6.66441 -7.6474
upperneck 7.54268 8.63686 -3.23619
head 1.53891 3.89298 0.239706
rclavicle -5.80451e-014 1.47101e-013
rhumerus -405.723 21.6016 257.698
rradius 85.0621
rwrist 3.75394
rhand 3.40608 742.778
rfingers 7.12502
rthumb 28.8485 714.988
lclavicle -5.80451e-014 1.47101e-013
lhumerus -382.953 -21.6016 -274.436
lradius 111.741
lwrist 10.3141
lhand -17.6786 -734.358
lfingers 7.12502
lthumb 8.58054 15.4472
rfemur 3.37927 -11.0509 5.24443
rtibia 69.0936
rfoot 366.675 11.706
rtoes 7.67262
lfemur -31.4026 10.7602 -12.2595
ltibia 119.401
lfoot 28.143 -7.88317
ltoes 4.89664
293
root 21.9867 1.29549 -0.133437 -1266.11 264.621 64.304
lowerback 35.2102 -1.3375 -0.365778
upperback 11.7075 -3.37544 -2.35274
thorax -4.97543 -2.3335 -1.03299
lowerneck 3.50768 6.50212 -7.50399
upperneck 7.34615 8.46245 -3.38242
head 1.5461 3.81679 0.182151
rclavicle 1.51076e-014 -1.92821e-014
rhumerus -405.588 21.5658 258.441
rradius 84.1066
rwrist 3.13622
rhand 2.52834 742.762
rfingers 7.12502
rthumb 28.0098 714.833
lclavicle 1.51076e-014 -1.92821e-014
lhumerus -383.35 -21.3768 -274.606
lradius 111.565
lwrist 10.2473
lhand -17.8615 -734.33
lfingers 7.12502
lthumb 8.40402 15.483
rfemur 3.19829 -11.3421 4.86077
rtibia 69.7394
rfoot 366.476 12.387
rtoes 6.98053
lfemur -31.3039 10.1236 -12.1171
ltibia 119.414
lfoot 27.9662 -7.03582
ltoes 4.35281
294
root 22.0092 1.29567 -0.131792 -1266.49 264.607 64.595
lowerback 35.4214 -1.34935 -0.53349
upperback 11.4536 -3.43496 -2.26161
thorax -5.31215 -2.35352 -0.813011
lowerneck 3.32036 6.35087 -7.33494
upperneck 7.08728 8.28424 -3.59058
head 1.51315 3.74107 0.0946421
rclavicle -1.07741e-013 1.3736e-013
rhumerus -405.412 21.4359 259.207
rradius 83.1577
rwrist 2.64969
rhand 1.77036 742.791
rfingers 7.12502
rthumb 27.2849 714.745
lclavicle -1.07741e-013 1.3736e-013
lhumerus -383.794 -21.069 -274.702
lradius 111.345
lwrist 10.198
lhand -18.1012 -734.41
lfingers 7.12502
lthumb 8.17263 15.4119
rfemur 3.0162 -11.6611 4.46397
rtibia 70.376
rfoot 366.367 13.0185
rtoes 6.5774
lfemur -31.2287 9.51348 -11.9985
ltibia 119.393
lfoot 27.8199 -6.30277
ltoes 3.62766
295
root 22.0322 1.29657 -0.129839 -1267.03 264.604 65.0234
lowerback 35.7015 -1.34933 -0.696995
upperback 11.142 -3.48513 -2.1847
thorax -5.60552 -2.3679 -0.629225
lowerneck 3.2239 6.20296 -7.12855
upperneck 6.78397 8.09816 -3.78162
head 1.45105 3.66609 0.00238929
rclavicle -1.19271e-015 9.48203e-014
rhumerus -405.118 21.1837 259.96
rradius 82.1403
rwrist 2.29099
rhand 1.16277 742.832
rfingers 7.12502
rthumb 26.7036 714.696
lclavicle -1.19271e-015 9.48203e-014
lhumerus -384.203 -20.7907 -274.798
lradius 111.036
lwrist 10.1171
lhand -18.4138 -734.602
lfingers 7.12502
lthumb 7.87093 15.2316
rfemur 2.85832 -11.9413 4.05779
rtibia 70.9944
rfoot 366.308 13.5873
rtoes 6.2141
lfemur -31.1309 8.87001 -11.9388
ltibia 119.323
lfoot 27.6908 -5.53615
ltoes 2.81402
296
root 22.0526 1.29725 -0.127772 -1267.27 264.602 65.1821
lowerback 35.836 -1.35413 -0.822823
upperback 10.9462 -3.52333 -2.11312
thorax -5.85651 -2.3773 -0.463368
lowerneck 3.11185 6.05037 -6.95582
upperneck 6.52297 7.90633 -3.93367
head 1.40185 3.58575 -0.0712031
rclavicle 2.94201e-014 -2.98177e-014
rhumerus -404.753 20.8162 260.744
rradius 81.1069
rwrist 2.01359
rhand 0.686772 742.869
rfingers 7.12502
rthumb 26.248 714.665
lclavicle 2.94201e-014 -2.98177e-014
lhumerus -384.543 -20.5138 -274.894
lradius 110.643
lwrist 10.1004
lhand -18.7272 -734.933
lfingers 7.12502
lthumb 7.56849 14.9114
rfemur 2.68697 -12.213 3.69916
rtibia 71.5901
rfoot 366.285 14.0995
rtoes 5.86378
lfemur -31.0479 8.21194 -11.8684
ltibia 119.221
lfoot 27.5571 -4.76699
ltoes 2.0932
